#!OML:ASF I:\salsa\salsa 7_09\Patient 1\Session 1\dancerfemale.ASF
:FULLY-SPECIFIED
:DEGREES
1708
root -0.466455 16.3992 -0.215266 -1435.55 1274.69 2.03372
lowerback 0.452357 -0.183785 -0.903569
upperback -8.31231 -0.705274 4.38578
thorax -8.96505 -0.386235 5.28307
lowerneck 14.7087 -19.5859 -14.7848
upperneck -4.25224 -29.7191 19.5853
head 1.56933 -15.7324 7.62965
rclavicle -8.34896e-015 4.77083e-014
rhumerus 10.7461 -7.47075 -87.9127
rradius 98.6562
rwrist -68.0497
rhand -20.3537 -321.199
rfingers 7.12502
rthumb 5.99838 8.90607
lclavicle -8.34896e-015 4.77083e-014
lhumerus -89.1904 -9.78968 98.8489
lradius 118.028
lwrist 14.6018
lhand 8.26236 36.9883
lfingers 7.12502
lthumb 33.4764 -296.113
rfemur -21.1457 16.0922 21.6601
rtibia 37.4316
rfoot 6.70451 36.4547
rtoes 9.59199
lfemur -22.0088 -22.5174 -7.88891
ltibia 49.574
lfoot -12.6718 2.40293
ltoes -17.0707
1709
root -0.661414 16.4381 -0.154302 -1435.74 1269.19 2.421
lowerback 0.874739 0.250337 0.113289
upperback -7.70081 -0.0344137 4.3491
thorax -8.59412 -0.128997 4.59527
lowerneck 13.4209 -19.2883 -13.9695
upperneck -3.303 -29.0759 18.5236
head 1.65496 -15.3225 7.15581
rclavicle -3.00165e-014 1.66979e-014
rhumerus 8.65415 -5.99974 -87.6542
rradius 97.6871
rwrist -66.8977
rhand -20.4898 -321.641
rfingers 7.12502
rthumb 5.86693 8.45992
lclavicle -3.00165e-014 1.66979e-014
lhumerus -89.3543 -11.7577 97.6727
lradius 118.449
lwrist 15.3928
lhand 7.59389 35.6894
lfingers 7.12502
lthumb 32.8408 -297.277
rfemur -20.5801 16.2193 21.4876
rtibia 36.4071
rfoot 7.29219 35.7011
rtoes 8.73229
lfemur -20.8708 -27.158 -6.35254
ltibia 47.0552
lfoot -11.9876 -2.31414
ltoes -17.4706
1710
root -0.859527 16.4783 -0.0905501 -1435.6 1263.9 2.82585
lowerback 1.0725 0.644204 1.14179
upperback -7.17758 0.558838 4.33106
thorax -8.16613 0.0901125 3.92962
lowerneck 12.8081 -18.681 -13.6565
upperneck -2.88512 -28.0772 17.8674
head 1.57135 -14.7772 6.9813
rclavicle -3.97569e-015 1.11319e-014
rhumerus 6.90717 -4.40193 -87.5154
rradius 96.5567
rwrist -66.0568
rhand -20.5334 -322.457
rfingers 7.12502
rthumb 5.8248 7.64337
lclavicle -3.97569e-015 1.11319e-014
lhumerus -88.8835 -13.5719 96.1448
lradius 118.955
lwrist 16.1568
lhand 10.6209 37.3715
lfingers 7.12502
lthumb 35.715 -296.242
rfemur -20.5034 16.0686 21.2689
rtibia 35.477
rfoot 7.52534 35.0584
rtoes 6.69903
lfemur -20.4314 -30.0969 -5.53564
ltibia 44.9875
lfoot -10.4098 -6.29494
ltoes -24.3553
1711
root -1.05931 16.5147 -0.0211205 -1435.24 1258.77 3.18485
lowerback 1.5344 0.134748 1.91237
upperback -6.94839 1.29285 4.45554
thorax -8.23734 0.975459 3.48054
lowerneck 12.31 -17.9973 -13.1541
upperneck -2.22512 -26.9919 16.8274
head 1.45962 -14.1865 6.69082
rclavicle -2.18663e-015 -5.40694e-014
rhumerus 4.76596 -1.87659 -86.7385
rradius 95.8057
rwrist -66.8685
rhand -20.226 -322.182
rfingers 7.12502
rthumb 6.12166 7.92692
lclavicle -2.18663e-015 -5.40694e-014
lhumerus -88.3646 -15.1217 94.7842
lradius 119.246
lwrist 16.6323
lhand 13.0731 38.3361
lfingers 7.12502
lthumb 38.0349 -295.874
rfemur -20.8893 15.6238 21.0246
rtibia 34.8698
rfoot 7.69499 34.5774
rtoes 4.61168
lfemur -20.3345 -32.7874 -4.5613
ltibia 43.4356
lfoot -8.57721 -9.71019
ltoes -25.0103
1712
root -1.26062 16.5318 0.0476584 -1434.93 1253.75 3.18168
lowerback 2.13362 0.490948 2.08548
upperback -6.87122 1.76624 4.48721
thorax -8.52721 1.17811 3.37108
lowerneck 12.2955 -18.2848 -13.4924
upperneck -1.26257 -25.4285 15.9475
head 1.47602 -13.0321 6.55216
rclavicle 4.17448e-015 -6.99722e-014
rhumerus 2.94295 -0.103914 -87.0928
rradius 95.3196
rwrist -66.5773
rhand -19.894 -322.739
rfingers 7.12502
rthumb 6.44214 7.37855
lclavicle 4.17448e-015 -6.99722e-014
lhumerus -87.5544 -16.6831 93.7143
lradius 119.408
lwrist 17.2172
lhand 13.8227 38.4446
lfingers 7.12502
lthumb 38.7423 -295.962
rfemur -21.4482 15.005 20.4845
rtibia 34.6676
rfoot 7.58456 33.7845
rtoes 3.02664
lfemur -19.6005 -33.1826 -4.72281
ltibia 42.599
lfoot -7.40808 -12.7222
ltoes -30.9445
1713
root -1.46172 16.5384 0.113979 -1434.75 1248.86 2.90344
lowerback 2.62374 0.817956 1.92854
upperback -6.66854 2.1311 4.39714
thorax -8.61113 1.33232 3.32323
lowerneck 12.0678 -17.4401 -13.3603
upperneck -0.801375 -24.3321 15.1924
head 1.37284 -12.4658 6.39269
rclavicle 2.94201e-014 2.62396e-014
rhumerus 1.45204 1.55852 -87.794
rradius 95.032
rwrist -66.3431
rhand -19.4643 -323.619
rfingers 7.12502
rthumb 6.85698 6.51216
lclavicle 2.94201e-014 2.62396e-014
lhumerus -86.1925 -18.2229 92.5748
lradius 119.402
lwrist 16.7042
lhand 14.6098 37.8432
lfingers 7.12502
lthumb 39.4842 -296.777
rfemur -22.1307 14.4598 19.7318
rtibia 34.8674
rfoot 6.36125 32.943
rtoes -0.359249
lfemur -18.5531 -31.0469 -5.89563
ltibia 42.2337
lfoot -6.51534 -14.5228
ltoes -32.4069
1714
root -1.66303 16.5314 0.18055 -1434.59 1244.07 2.63516
lowerback 3.06641 1.14919 1.84181
upperback -6.48895 2.49347 4.16669
thorax -8.68225 1.47456 3.08339
lowerneck 11.6925 -16.7423 -12.5884
upperneck -0.304922 -23.3288 13.957
head 1.19485 -11.9287 5.99914
rclavicle -1.90833e-014 0
rhumerus -0.0854277 2.94207 -88.6802
rradius 95.0838
rwrist -66.0315
rhand -19.2203 -325.204
rfingers 7.12502
rthumb 7.09246 4.93467
lclavicle -1.90833e-014 0
lhumerus -84.4834 -19.781 91.6376
lradius 119.202
lwrist 16.2307
lhand 12.8963 37.0642
lfingers 7.12502
lthumb 37.8679 -297.101
rfemur -23.0285 14.1724 19.0172
rtibia 35.3951
rfoot 4.76497 31.8863
rtoes -3.84299
lfemur -17.7045 -28.1533 -7.16307
ltibia 42.1085
lfoot -6.14685 -15.9778
ltoes -31.8745
1715
root -1.8645 16.5157 0.238 -1434.61 1239.38 2.05108
lowerback 3.34828 1.55368 1.51048
upperback -6.28561 2.9031 3.74384
thorax -8.6312 1.64499 2.77235
lowerneck 11.1876 -16.0303 -12.2467
upperneck 0.509165 -22.3516 13.4668
head 1.28866 -11.4066 5.81211
rclavicle -3.19049e-014 3.81667e-014
rhumerus -1.62876 3.62244 -89.9278
rradius 95.107
rwrist -64.9026
rhand -17.8907 -325.605
rfingers 7.12502
rthumb 8.37586 4.58134
lclavicle -3.19049e-014 3.81667e-014
lhumerus -82.1786 -21.4981 90.9633
lradius 118.584
lwrist 14.7847
lhand 8.95697 37.5953
lfingers 7.12502
lthumb 34.1364 -295.651
rfemur -23.9912 14.0937 17.9793
rtibia 36.0196
rfoot 3.69299 30.6284
rtoes -5.18361
lfemur -16.4395 -24.5595 -9.13533
ltibia 41.8691
lfoot -7.18773 -15.9476
ltoes -34.1148
1716
root -2.0832 16.5019 0.28199 -1434.91 1235.22 1.09031
lowerback 3.57145 1.81408 1.10054
upperback -6.06767 3.10297 3.21451
thorax -8.51713 1.71473 2.41699
lowerneck 10.5727 -15.3712 -11.7387
upperneck 1.35297 -21.4202 12.6652
head 1.37068 -10.9013 5.50134
rclavicle -6.85807e-014 -1.82882e-014
rhumerus -3.10828 4.37138 -90.9616
rradius 95.255
rwrist -63.5641
rhand -17.4773 -326.005
rfingers 7.12502
rthumb 8.77479 4.19753
lclavicle -6.85807e-014 -1.82882e-014
lhumerus -79.5508 -23.0547 90.8187
lradius 117.555
lwrist 12.6654
lhand 6.54991 36.2637
lfingers 7.12502
lthumb 31.8472 -296.5
rfemur -24.9134 13.5261 16.6061
rtibia 36.58
rfoot 2.75966 29.3167
rtoes -6.89421
lfemur -15.1876 -21.1596 -11.5199
ltibia 41.346
lfoot -8.29372 -14.8025
ltoes -34.5424
1717
root -2.2944 16.4917 0.326095 -1435.1 1231.22 0.510111
lowerback 3.85542 2.02462 0.862707
upperback -5.97347 3.30276 2.88076
thorax -8.57912 1.79507 2.16766
lowerneck 10.3241 -14.8126 -11.533
upperneck 1.9218 -20.6702 11.9941
head 1.39323 -10.5081 5.29139
rclavicle -3.21037e-014 -2.14687e-014
rhumerus -4.78395 5.1295 -91.8104
rradius 95.6056
rwrist -61.9857
rhand -17.135 -326.685
rfingers 7.12502
rthumb 9.10505 3.53149
lclavicle -3.21037e-014 -2.14687e-014
lhumerus -77.129 -24.3109 91.4215
lradius 116.585
lwrist 10.9608
lhand 0.995141 34.9753
lfingers 7.12502
lthumb 26.5432 -296.864
rfemur -25.8499 12.9679 15.7726
rtibia 36.9761
rfoot 1.92714 28.1861
rtoes -8.6645
lfemur -13.9069 -17.3421 -13.4404
ltibia 40.5692
lfoot -9.77212 -13.1207
ltoes -34.8566
1718
root -2.51502 16.4811 0.365873 -1435.33 1227.65 0.314757
lowerback 4.27554 2.10426 1.13079
upperback -5.835 3.38305 2.63609
thorax -8.64539 1.79028 1.73763
lowerneck 9.93323 -14.3917 -11.0657
upperneck 2.69675 -20.0631 10.8636
head 1.45106 -10.1748 4.8885
rclavicle -9.34288e-015 7.95139e-016
rhumerus -6.48509 6.08052 -92.5919
rradius 96.7048
rwrist -61.8048
rhand -18.099 -327.822
rfingers 7.12502
rthumb 8.17475 2.35633
lclavicle -9.34288e-015 7.95139e-016
lhumerus -74.2265 -25.135 91.8112
lradius 115.378
lwrist 8.05685
lhand -0.00474032 31.6708
lfingers 7.12502
lthumb 25.5858 -300.028
rfemur -26.5184 11.9923 15.4999
rtibia 37.1727
rfoot 1.24414 27.6134
rtoes -10.4193
lfemur -12.5305 -13.3845 -14.9329
ltibia 39.5613
lfoot -11.6191 -11.0556
ltoes -35.6611
1719
root -2.73607 16.4689 0.399101 -1435.59 1224.13 0.150562
lowerback 4.52334 2.09935 1.34388
upperback -5.55131 3.33807 2.45865
thorax -8.45583 1.73112 1.43337
lowerneck 9.30495 -13.6774 -10.2062
upperneck 3.18909 -18.9973 9.85371
head 1.39889 -9.61091 4.48347
rclavicle -2.76311e-014 2.38542e-015
rhumerus -7.84715 7.21691 -93.2771
rradius 97.4815
rwrist -61.7674
rhand -18.5882 -328.185
rfingers 7.12502
rthumb 7.70265 1.97542
lclavicle -2.76311e-014 2.38542e-015
lhumerus -71.1185 -25.7678 92.4846
lradius 114.467
lwrist 6.33605
lhand -3.76554 31.1631
lfingers 7.12502
lthumb 21.9791 -300.066
rfemur -27.1633 11.274 15.2973
rtibia 37.1743
rfoot 0.548798 26.9466
rtoes -12.8065
lfemur -11.1191 -9.09792 -16.3187
ltibia 38.3268
lfoot -13.5361 -9.07912
ltoes -34.8963
1720
root -2.97415 16.4538 0.42377 -1435.86 1220.9 -0.0683431
lowerback 4.90755 1.94363 1.73915
upperback -5.3537 3.11663 2.21573
thorax -8.42553 1.57466 0.973338
lowerneck 8.88184 -12.674 -9.30228
upperneck 3.27529 -17.5517 9.30662
head 1.21476 -8.86932 4.24073
rclavicle 3.74709e-014 3.02153e-014
rhumerus -9.10848 8.25459 -94.0175
rradius 98.2367
rwrist -61.6902
rhand -17.8019 -327.037
rfingers 7.12502
rthumb 8.46154 3.1529
lclavicle 3.74709e-014 3.02153e-014
lhumerus -67.756 -26.1689 93.1607
lradius 113.208
lwrist 5.72737
lhand -5.92016 30.7707
lfingers 7.12502
lthumb 19.9091 -300.229
rfemur -27.8471 10.8577 14.899
rtibia 37.0027
rfoot 0.485396 26.0701
rtoes -13.6654
lfemur -9.86163 -5.2175 -17.7232
ltibia 36.875
lfoot -14.8991 -7.47692
ltoes -32.4365
1721
root -3.21721 16.4381 0.448342 -1436.07 1217.79 -0.194575
lowerback 5.47737 1.76439 2.20995
upperback -5.28537 2.89553 1.97717
thorax -8.64812 1.41582 0.468365
lowerneck 8.65999 -11.7296 -8.61954
upperneck 3.4013 -16.2216 8.98436
head 1.07786 -8.1911 4.08467
rclavicle -6.14245e-014 1.51076e-014
rhumerus -10.418 8.81129 -94.7987
rradius 99.1233
rwrist -60.7688
rhand -16.7421 -327.292
rfingers 7.12502
rthumb 9.4842 2.94179
lclavicle -6.14245e-014 1.51076e-014
lhumerus -64.1687 -25.7283 94.0398
lradius 111.442
lwrist 5.7647
lhand -7.20079 30.7053
lfingers 7.12502
lthumb 18.6777 -300.171
rfemur -28.577 10.5996 14.5795
rtibia 36.7077
rfoot 0.801467 25.2865
rtoes -12.9589
lfemur -8.67137 -2.19718 -19.0009
ltibia 35.1529
lfoot -16.2078 -5.67041
ltoes -30.8518
